<svg xmlns="http://www.w3.org/2000/svg" xmlns:xlink="http://www.w3.org/1999/xlink" viewBox="561 308 69 15" width="69" height="15"><defs><style>.a{clip-path:url(#b);}.b{fill:#23c6c8;}</style><clipPath id="b"><rect x="561" y="308" width="69" height="15"/></clipPath></defs><g id="a" class="a"><path class="b" d="M412,654.04a.368.368,0,0,1-.15.288l-7,5.837a.54.54,0,0,1-.691,0l-7-5.837a.351.351,0,0,1,0-.576l.752-.626a.54.54,0,0,1,.691,0l5.907,4.922,5.907-4.922a.54.54,0,0,1,.691,0l.751.626A.368.368,0,0,1,412,654.04Z" transform="translate(1220.916 -89.084) rotate(90)"/><path class="b" d="M412,654.04a.368.368,0,0,1-.15.288l-7,5.837a.54.54,0,0,1-.691,0l-7-5.837a.351.351,0,0,1,0-.576l.752-.626a.54.54,0,0,1,.691,0l5.907,4.922,5.907-4.922a.54.54,0,0,1,.691,0l.751.626A.368.368,0,0,1,412,654.04Z" transform="translate(-65.374 719.916) rotate(-90)"/><path class="b" d="M136.75,132.063v4.375a.3.3,0,0,1-.312.313h-3.125a.3.3,0,0,1-.312-.312v-.625a.3.3,0,0,1,.313-.312H135.5v-3.437a.3.3,0,0,1,.313-.312h.625a.3.3,0,0,1,.313.313Zm4.063,3.438a5.193,5.193,0,0,0-.713-2.666,5.3,5.3,0,0,0-1.934-1.934,5.342,5.342,0,0,0-5.332,0,5.3,5.3,0,0,0-1.934,1.934,5.342,5.342,0,0,0,0,5.332,5.3,5.3,0,0,0,1.934,1.934,5.342,5.342,0,0,0,5.332,0,5.3,5.3,0,0,0,1.934-1.934A5.193,5.193,0,0,0,140.813,135.5Zm2.188,0a7.337,7.337,0,0,1-1.006,3.765,7.466,7.466,0,0,1-2.729,2.729,7.548,7.548,0,0,1-7.529,0,7.466,7.466,0,0,1-2.729-2.729,7.548,7.548,0,0,1,0-7.529,7.466,7.466,0,0,1,2.729-2.729,7.548,7.548,0,0,1,7.529,0,7.466,7.466,0,0,1,2.729,2.729A7.337,7.337,0,0,1,143,135.5Z" transform="translate(487 180)"/></g></svg>